<svg width="118" height="19" viewBox="0 0 118 19" fill="none" xmlns="http://www.w3.org/2000/svg">
<path d="M0.96 0.827999H8.688C10.816 0.827999 12.496 0.995999 13.728 1.332C14.96 1.64933 15.8653 2.20933 16.444 3.012C17.0227 3.81467 17.312 4.92533 17.312 6.344V13.736C17.312 15.1173 17.0413 16.1907 16.5 16.956C15.9587 17.7027 15.072 18.2347 13.84 18.552C12.608 18.8507 10.9 19 8.716 19H0.96V0.827999ZM8.52 15.892C9.71467 15.892 10.6107 15.8453 11.208 15.752C11.824 15.64 12.2627 15.4347 12.524 15.136C12.804 14.8373 12.944 14.3707 12.944 13.736V6.26C12.944 5.40133 12.5987 4.804 11.908 4.468C11.236 4.11333 10.1533 3.936 8.66 3.936H5.328V15.892H8.52ZM21.1189 0.827999H29.2949C31.7216 0.827999 33.4762 1.12667 34.5589 1.724C35.6416 2.30267 36.1829 3.28267 36.1829 4.664V7.856C36.1829 8.92 35.8002 9.76 35.0349 10.376C34.2882 10.9733 33.2896 11.356 32.0389 11.524L37.3029 19H32.2629L27.5029 11.86H25.4869V19H21.1189V0.827999ZM29.2389 8.976C30.2656 8.976 30.9656 8.84533 31.3389 8.584C31.7122 8.304 31.8989 7.772 31.8989 6.988V5.7C31.8989 5.028 31.6936 4.57067 31.2829 4.328C30.8909 4.06667 30.2096 3.936 29.2389 3.936H25.4869V8.976H29.2389ZM40.102 0.827999H47.466C49.202 0.827999 50.5367 0.958665 51.47 1.22C52.422 1.46267 53.094 1.864 53.486 2.424C53.878 2.96533 54.074 3.73067 54.074 4.72V6.96C54.074 7.464 53.8687 7.94 53.458 8.388C53.066 8.836 52.5994 9.144 52.058 9.312V9.452C52.7674 9.52667 53.4114 9.83467 53.99 10.376C54.5874 10.8987 54.886 11.4867 54.886 12.14V14.94C54.886 16.4147 54.298 17.46 53.122 18.076C51.946 18.692 50.126 19 47.662 19H40.102V0.827999ZM47.466 8.22C48.1567 8.22 48.67 8.164 49.006 8.052C49.342 7.94 49.566 7.76267 49.678 7.52C49.8087 7.25867 49.874 6.88533 49.874 6.4V5.504C49.874 5.07467 49.818 4.75733 49.706 4.552C49.594 4.328 49.3607 4.16933 49.006 4.076C48.67 3.98267 48.1287 3.936 47.382 3.936H44.47V8.22H47.466ZM47.578 15.892C48.642 15.892 49.398 15.7707 49.846 15.528C50.294 15.2853 50.518 14.8933 50.518 14.352V12.896C50.518 12.224 50.3407 11.748 49.986 11.468C49.65 11.188 49.0434 11.048 48.166 11.048H44.47V15.892H47.578ZM64.8886 0.827999H69.3126L78.1046 13.232V0.827999H81.9966V19H77.5726L68.7806 6.4V19H64.8886V0.827999ZM86.1959 0.827999H100.336V3.936H90.5639V8.388H99.4119V11.496H90.5639V19H86.1959V0.827999ZM107.766 3.936H102.166V0.827999H117.706V3.936H112.134V19H107.766V3.936Z" fill="url(#paint0_linear_76_260)"/>
<defs>
<linearGradient id="paint0_linear_76_260" x1="-0.999999" y1="8.99998" x2="119" y2="8.99999" gradientUnits="userSpaceOnUse">
<stop stop-color="#8CC6FF"/>
<stop offset="0.539715" stop-color="#D9ECFF"/>
<stop offset="1" stop-color="#8CC6FF"/>
</linearGradient>
</defs>
</svg>
