<svg width="358" height="31" viewBox="0 0 358 31" fill="none" xmlns="http://www.w3.org/2000/svg">
<path d="M0.24 2.232H9.072C11.504 2.232 13.424 2.424 14.832 2.808C16.24 3.17067 17.2747 3.81067 17.936 4.728C18.5973 5.64533 18.928 6.91467 18.928 8.536V16.984C18.928 18.5627 18.6187 19.7893 18 20.664C17.3813 21.5173 16.368 22.1253 14.96 22.488C13.552 22.8293 11.6 23 9.104 23H0.24V2.232ZM8.88 19.448C10.2453 19.448 11.2693 19.3947 11.952 19.288C12.656 19.16 13.1573 18.9253 13.456 18.584C13.776 18.2427 13.936 17.7093 13.936 16.984V8.44C13.936 7.45867 13.5413 6.776 12.752 6.392C11.984 5.98667 10.7467 5.784 9.04 5.784H5.232V19.448H8.88ZM23.2147 1.912H27.8868V5.688H23.2147V1.912ZM23.2147 7.512H27.8868V23H23.2147V7.512ZM38.71 30.04C36.1927 30.04 34.326 29.9653 33.11 29.816V26.68C35.1153 26.9573 36.982 27.096 38.71 27.096C40.2887 27.096 41.4193 26.84 42.102 26.328C42.7847 25.816 43.126 24.9627 43.126 23.768V21.272C42.742 21.8267 42.3687 22.2533 42.006 22.552C41.6433 22.8293 41.1633 23.0213 40.566 23.128C39.99 23.256 39.19 23.32 38.166 23.32C36.6513 23.32 35.446 23.1813 34.55 22.904C33.654 22.6053 33.0033 22.1253 32.598 21.464C32.1927 20.7813 31.99 19.8427 31.99 18.648V12.6C31.99 11.1707 32.1713 10.072 32.534 9.304C32.918 8.536 33.558 7.992 34.454 7.672C35.3713 7.352 36.6833 7.192 38.39 7.192C39.4993 7.192 40.3527 7.256 40.95 7.384C41.526 7.512 41.9633 7.704 42.262 7.96C42.5607 8.216 42.902 8.65333 43.286 9.272V7.512H47.798V23.832C47.798 26.0293 47.0407 27.608 45.526 28.568C44.0327 29.5493 41.7607 30.04 38.71 30.04ZM39.83 20.408C40.7473 20.408 41.43 20.344 41.878 20.216C42.3473 20.088 42.6673 19.8853 42.838 19.608C43.03 19.3093 43.126 18.8933 43.126 18.36V12.12C43.126 11.544 43.0407 11.1173 42.87 10.84C42.6993 10.5413 42.3687 10.3387 41.878 10.232C41.3873 10.1253 40.6193 10.072 39.574 10.072C38.7207 10.072 38.0913 10.136 37.686 10.264C37.2807 10.392 37.0033 10.616 36.854 10.936C36.726 11.2347 36.662 11.6827 36.662 12.28V18.2C36.662 18.8613 36.726 19.3413 36.854 19.64C37.0033 19.9173 37.2913 20.12 37.718 20.248C38.1447 20.3547 38.8487 20.408 39.83 20.408ZM52.3547 1.912H57.0267V5.688H52.3547V1.912ZM52.3547 7.512H57.0267V23H52.3547V7.512ZM69.322 23.32C68.5327 23.32 67.8713 23.288 67.338 23.224C66.8047 23.16 66.2713 23.032 65.738 22.84C65.1407 22.648 64.65 22.3813 64.266 22.04C63.9033 21.6987 63.6047 21.2293 63.37 20.632C63.114 20.0133 62.986 19.2987 62.986 18.488V10.392H59.85V7.512H62.986V3.032H67.658V7.512H71.914V10.392H67.658V17.688C67.658 18.4347 67.722 19 67.85 19.384C67.978 19.7467 68.2233 20.0133 68.586 20.184C68.9487 20.3333 69.5033 20.408 70.25 20.408C70.5487 20.408 71.1033 20.3547 71.914 20.248V23.16C70.9113 23.2667 70.0473 23.32 69.322 23.32ZM79.3132 23.32C77.8626 23.32 76.7746 23.192 76.0492 22.936C75.3452 22.6587 74.8439 22.1787 74.5452 21.496C74.2679 20.792 74.1292 19.7467 74.1292 18.36C74.1292 17.1227 74.2786 16.152 74.5772 15.448C74.8972 14.744 75.3986 14.2427 76.0812 13.944C76.7852 13.624 77.7452 13.464 78.9612 13.464H84.2092V12.408C84.2092 11.7467 84.1132 11.256 83.9212 10.936C83.7506 10.616 83.4199 10.392 82.9292 10.264C82.4599 10.136 81.7452 10.072 80.7852 10.072C79.4626 10.072 77.6492 10.2 75.3452 10.456V7.512C77.0306 7.29867 79.0039 7.192 81.2652 7.192C83.2492 7.192 84.7746 7.34133 85.8412 7.64C86.9292 7.93867 87.7079 8.45067 88.1772 9.176C88.6466 9.90133 88.8812 10.9573 88.8812 12.344V23H84.3052V21.592C83.9426 22.2107 83.4519 22.648 82.8332 22.904C82.2146 23.1813 81.0412 23.32 79.3132 23.32ZM81.1372 20.408C82.0759 20.408 82.7479 20.376 83.1532 20.312C83.4519 20.2693 83.6546 20.2053 83.7612 20.12C83.8892 20.0347 83.9959 19.896 84.0812 19.704C84.1666 19.5547 84.2092 19.3307 84.2092 19.032V16.024H81.0092C80.2839 16.024 79.7719 16.0773 79.4732 16.184C79.1746 16.2693 78.9719 16.4613 78.8652 16.76C78.7586 17.0373 78.7052 17.5387 78.7052 18.264C78.7052 18.968 78.7586 19.4587 78.8652 19.736C78.9719 20.0133 79.1746 20.1947 79.4732 20.28C79.7932 20.3653 80.3479 20.408 81.1372 20.408ZM93.4397 0.599998H98.1117V23H93.4397V0.599998ZM110.55 2.232H119.894C122.667 2.232 124.673 2.57333 125.91 3.256C127.147 3.91733 127.766 5.03733 127.766 6.616V10.264C127.766 11.48 127.329 12.44 126.454 13.144C125.601 13.8267 124.459 14.264 123.03 14.456L129.046 23H123.286L117.846 14.84H115.542V23H110.55V2.232ZM119.83 11.544C121.003 11.544 121.803 11.3947 122.23 11.096C122.657 10.776 122.87 10.168 122.87 9.272V7.8C122.87 7.032 122.635 6.50933 122.166 6.232C121.718 5.93333 120.939 5.784 119.83 5.784H115.542V11.544H119.83ZM139.829 23.32C134.346 23.32 131.605 21.6453 131.605 18.296V12.728C131.605 10.7867 132.224 9.37867 133.461 8.504C134.72 7.62933 136.65 7.192 139.253 7.192C141.706 7.192 143.498 7.61867 144.629 8.472C145.781 9.304 146.357 10.7227 146.357 12.728V16.504H136.309V17.912C136.309 18.808 136.629 19.448 137.269 19.832C137.909 20.216 139.061 20.408 140.725 20.408C142.261 20.408 143.989 20.184 145.909 19.736V22.712C144.01 23.1173 141.984 23.32 139.829 23.32ZM141.909 13.848V11.608C141.909 11.096 141.696 10.712 141.269 10.456C140.864 10.2 140.17 10.072 139.189 10.072C138.058 10.072 137.301 10.2 136.917 10.456C136.512 10.7333 136.309 11.1173 136.309 11.608V13.848H141.909ZM156.04 23.32C154.376 23.32 152.339 23.16 149.928 22.84V19.736C152.893 20.184 154.952 20.408 156.104 20.408C157.085 20.408 157.811 20.312 158.28 20.12C158.749 19.928 158.984 19.576 158.984 19.064V18.104C158.984 17.5707 158.835 17.1973 158.536 16.984C158.237 16.7493 157.651 16.632 156.776 16.632H154.76C153.117 16.632 151.848 16.312 150.952 15.672C150.056 15.0107 149.608 14.0507 149.608 12.792V10.904C149.608 9.56 150.248 8.61067 151.528 8.056C152.808 7.48 154.739 7.192 157.32 7.192C158.344 7.192 160.179 7.288 162.824 7.48V10.456C159.496 10.2 157.619 10.072 157.192 10.072C155.933 10.072 155.112 10.1573 154.728 10.328C154.387 10.52 154.216 10.872 154.216 11.384V12.216C154.216 12.4933 154.355 12.7387 154.632 12.952C154.909 13.144 155.315 13.24 155.848 13.24H157.896C161.693 13.24 163.592 14.4773 163.592 16.952V18.904C163.592 19.6507 163.453 20.3013 163.176 20.856C162.899 21.4107 162.536 21.848 162.088 22.168C161.661 22.4667 161.107 22.7013 160.424 22.872C159.763 23.0427 159.069 23.16 158.344 23.224C157.683 23.288 156.915 23.32 156.04 23.32ZM167.509 1.912H172.181V5.688H167.509V1.912ZM167.509 7.512H172.181V23H167.509V7.512ZM182.524 23.32C180.86 23.32 178.822 23.16 176.412 22.84V19.736C179.377 20.184 181.436 20.408 182.588 20.408C183.569 20.408 184.294 20.312 184.764 20.12C185.233 19.928 185.468 19.576 185.468 19.064V18.104C185.468 17.5707 185.318 17.1973 185.02 16.984C184.721 16.7493 184.134 16.632 183.26 16.632H181.244C179.601 16.632 178.332 16.312 177.436 15.672C176.54 15.0107 176.092 14.0507 176.092 12.792V10.904C176.092 9.56 176.732 8.61067 178.012 8.056C179.292 7.48 181.222 7.192 183.804 7.192C184.828 7.192 186.662 7.288 189.308 7.48V10.456C185.98 10.2 184.102 10.072 183.676 10.072C182.417 10.072 181.596 10.1573 181.212 10.328C180.87 10.52 180.7 10.872 180.7 11.384V12.216C180.7 12.4933 180.838 12.7387 181.116 12.952C181.393 13.144 181.798 13.24 182.332 13.24H184.38C188.177 13.24 190.076 14.4773 190.076 16.952V18.904C190.076 19.6507 189.937 20.3013 189.66 20.856C189.382 21.4107 189.02 21.848 188.572 22.168C188.145 22.4667 187.59 22.7013 186.908 22.872C186.246 23.0427 185.553 23.16 184.828 23.224C184.166 23.288 183.398 23.32 182.524 23.32ZM201.608 23.32C200.819 23.32 200.158 23.288 199.624 23.224C199.091 23.16 198.558 23.032 198.024 22.84C197.427 22.648 196.936 22.3813 196.552 22.04C196.19 21.6987 195.891 21.2293 195.656 20.632C195.4 20.0133 195.272 19.2987 195.272 18.488V10.392H192.136V7.512H195.272V3.032H199.944V7.512H204.2V10.392H199.944V17.688C199.944 18.4347 200.008 19 200.136 19.384C200.264 19.7467 200.51 20.0133 200.872 20.184C201.235 20.3333 201.79 20.408 202.536 20.408C202.835 20.408 203.39 20.3547 204.2 20.248V23.16C203.198 23.2667 202.334 23.32 201.608 23.32ZM211.599 23.32C210.149 23.32 209.061 23.192 208.335 22.936C207.631 22.6587 207.13 22.1787 206.831 21.496C206.554 20.792 206.415 19.7467 206.415 18.36C206.415 17.1227 206.565 16.152 206.863 15.448C207.183 14.744 207.685 14.2427 208.367 13.944C209.071 13.624 210.031 13.464 211.247 13.464H216.495V12.408C216.495 11.7467 216.399 11.256 216.207 10.936C216.037 10.616 215.706 10.392 215.215 10.264C214.746 10.136 214.031 10.072 213.071 10.072C211.749 10.072 209.935 10.2 207.631 10.456V7.512C209.317 7.29867 211.29 7.192 213.551 7.192C215.535 7.192 217.061 7.34133 218.127 7.64C219.215 7.93867 219.994 8.45067 220.463 9.176C220.933 9.90133 221.167 10.9573 221.167 12.344V23H216.591V21.592C216.229 22.2107 215.738 22.648 215.119 22.904C214.501 23.1813 213.327 23.32 211.599 23.32ZM213.423 20.408C214.362 20.408 215.034 20.376 215.439 20.312C215.738 20.2693 215.941 20.2053 216.047 20.12C216.175 20.0347 216.282 19.896 216.367 19.704C216.453 19.5547 216.495 19.3307 216.495 19.032V16.024H213.295C212.57 16.024 212.058 16.0773 211.759 16.184C211.461 16.2693 211.258 16.4613 211.151 16.76C211.045 17.0373 210.991 17.5387 210.991 18.264C210.991 18.968 211.045 19.4587 211.151 19.736C211.258 20.0133 211.461 20.1947 211.759 20.28C212.079 20.3653 212.634 20.408 213.423 20.408ZM225.598 7.512H230.206V9.4C230.569 7.928 232.222 7.192 235.166 7.192C237.15 7.192 238.537 7.55467 239.326 8.28C240.137 8.984 240.542 10.104 240.542 11.64V23H235.87V12.248C235.87 11.6507 235.806 11.2027 235.678 10.904C235.571 10.6053 235.337 10.392 234.974 10.264C234.633 10.136 234.099 10.072 233.374 10.072C232.457 10.072 231.785 10.136 231.358 10.264C230.931 10.3707 230.643 10.5733 230.494 10.872C230.345 11.1707 230.27 11.6293 230.27 12.248V23H225.598V7.512ZM252.501 23.32C251.691 23.32 251.051 23.2987 250.581 23.256C250.112 23.2347 249.536 23.1813 248.853 23.096C248.171 23.0107 247.605 22.8613 247.157 22.648C246.731 22.4347 246.283 22.1147 245.813 21.688C244.939 20.9627 244.501 19.7253 244.501 17.976V12.824C244.501 11.416 244.821 10.2427 245.461 9.304C245.696 8.96267 246.037 8.65333 246.485 8.376C246.955 8.07733 247.424 7.84267 247.893 7.672C248.277 7.544 248.789 7.43733 249.429 7.352C250.069 7.26667 250.635 7.21333 251.125 7.192H252.821C254.016 7.192 255.584 7.384 257.525 7.768V10.84C255.328 10.328 253.643 10.072 252.469 10.072C250.315 10.072 249.237 10.7973 249.237 12.248V17.944C249.237 19.5867 250.421 20.408 252.789 20.408C253.941 20.408 255.595 20.1733 257.749 19.704V22.776C255.808 23.1387 254.059 23.32 252.501 23.32ZM268.483 23.32C263 23.32 260.259 21.6453 260.259 18.296V12.728C260.259 10.7867 260.877 9.37867 262.115 8.504C263.373 7.62933 265.304 7.192 267.907 7.192C270.36 7.192 272.152 7.61867 273.283 8.472C274.435 9.304 275.011 10.7227 275.011 12.728V16.504H264.963V17.912C264.963 18.808 265.283 19.448 265.923 19.832C266.563 20.216 267.715 20.408 269.379 20.408C270.915 20.408 272.643 20.184 274.563 19.736V22.712C272.664 23.1173 270.637 23.32 268.483 23.32ZM270.563 13.848V11.608C270.563 11.096 270.349 10.712 269.923 10.456C269.517 10.2 268.824 10.072 267.843 10.072C266.712 10.072 265.955 10.2 265.571 10.456C265.165 10.7333 264.963 11.1173 264.963 11.608V13.848H270.563ZM286.789 2.232H295.205C297.189 2.232 298.714 2.38133 299.781 2.68C300.869 2.95733 301.637 3.416 302.085 4.056C302.533 4.67467 302.757 5.54933 302.757 6.68V9.24C302.757 9.816 302.522 10.36 302.053 10.872C301.605 11.384 301.071 11.736 300.453 11.928V12.088C301.263 12.1733 301.999 12.5253 302.661 13.144C303.343 13.7413 303.685 14.4133 303.685 15.16V18.36C303.685 20.0453 303.013 21.24 301.669 21.944C300.325 22.648 298.245 23 295.429 23H286.789V2.232ZM295.205 10.68C295.994 10.68 296.581 10.616 296.965 10.488C297.349 10.36 297.605 10.1573 297.733 9.88C297.882 9.58133 297.957 9.15467 297.957 8.6V7.576C297.957 7.08533 297.893 6.72267 297.765 6.488C297.637 6.232 297.37 6.05067 296.965 5.944C296.581 5.83733 295.962 5.784 295.109 5.784H291.781V10.68H295.205ZM295.333 19.448C296.549 19.448 297.413 19.3093 297.925 19.032C298.437 18.7547 298.693 18.3067 298.693 17.688V16.024C298.693 15.256 298.49 14.712 298.085 14.392C297.701 14.072 297.007 13.912 296.005 13.912H291.781V19.448H295.333ZM314.653 23.32C313.693 23.32 312.904 23.288 312.285 23.224C311.667 23.16 311.005 23.032 310.301 22.84C309.533 22.6267 308.915 22.328 308.445 21.944C307.976 21.5387 307.581 20.9733 307.261 20.248C306.941 19.544 306.781 18.6907 306.781 17.688V13.112C306.781 12.088 306.941 11.192 307.261 10.424C307.581 9.656 307.997 9.05867 308.509 8.632C308.957 8.26933 309.544 7.97067 310.269 7.736C311.016 7.48 311.741 7.32 312.445 7.256C313.256 7.21333 313.992 7.192 314.653 7.192C315.635 7.192 316.413 7.224 316.989 7.288C317.587 7.33067 318.237 7.45867 318.941 7.672C319.709 7.90667 320.328 8.22667 320.797 8.632C321.288 9.03733 321.704 9.61333 322.045 10.36C322.365 11.128 322.525 12.0453 322.525 13.112V17.688C322.525 18.648 322.365 19.4907 322.045 20.216C321.747 20.9413 321.352 21.5067 320.861 21.912C320.435 22.2747 319.848 22.5733 319.101 22.808C318.376 23.0213 317.661 23.16 316.957 23.224C316.317 23.288 315.549 23.32 314.653 23.32ZM314.653 20.408C315.528 20.408 316.189 20.344 316.637 20.216C317.085 20.0667 317.395 19.8427 317.565 19.544C317.757 19.2453 317.853 18.808 317.853 18.232V12.376C317.853 11.5227 317.629 10.9253 317.181 10.584C316.733 10.2427 315.891 10.072 314.653 10.072C313.416 10.072 312.573 10.2427 312.125 10.584C311.677 10.9253 311.453 11.5227 311.453 12.376V18.232C311.453 18.808 311.539 19.2453 311.709 19.544C311.901 19.8427 312.221 20.0667 312.669 20.216C313.117 20.344 313.779 20.408 314.653 20.408ZM330.871 22.872L324.695 7.512H329.783L333.271 18.456L336.439 7.512H341.271L332.791 29.656H328.055L330.871 22.872ZM349.693 23.32C348.029 23.32 345.991 23.16 343.581 22.84V19.736C346.546 20.184 348.605 20.408 349.757 20.408C350.738 20.408 351.463 20.312 351.933 20.12C352.402 19.928 352.637 19.576 352.637 19.064V18.104C352.637 17.5707 352.487 17.1973 352.189 16.984C351.89 16.7493 351.303 16.632 350.429 16.632H348.413C346.77 16.632 345.501 16.312 344.605 15.672C343.709 15.0107 343.261 14.0507 343.261 12.792V10.904C343.261 9.56 343.901 8.61067 345.181 8.056C346.461 7.48 348.391 7.192 350.973 7.192C351.997 7.192 353.831 7.288 356.477 7.48V10.456C353.149 10.2 351.271 10.072 350.845 10.072C349.586 10.072 348.765 10.1573 348.381 10.328C348.039 10.52 347.869 10.872 347.869 11.384V12.216C347.869 12.4933 348.007 12.7387 348.285 12.952C348.562 13.144 348.967 13.24 349.501 13.24H351.549C355.346 13.24 357.245 14.4773 357.245 16.952V18.904C357.245 19.6507 357.106 20.3013 356.829 20.856C356.551 21.4107 356.189 21.848 355.741 22.168C355.314 22.4667 354.759 22.7013 354.077 22.872C353.415 23.0427 352.722 23.16 351.997 23.224C351.335 23.288 350.567 23.32 349.693 23.32Z" fill="url(#paint0_linear_1_4)"/>
<defs>
<linearGradient id="paint0_linear_1_4" x1="-2" y1="11.5" x2="359" y2="11.5" gradientUnits="userSpaceOnUse">
<stop stop-color="#8CC6FF"/>
<stop offset="0.539715" stop-color="#D9ECFF"/>
<stop offset="1" stop-color="#8CC6FF"/>
</linearGradient>
</defs>
</svg>
