<svg width="36" height="36" viewBox="0 0 36 36" fill="none" xmlns="http://www.w3.org/2000/svg">
<path fill-rule="evenodd" clip-rule="evenodd" d="M6 10.5C6 9.67157 6.67157 9 7.5 9H28.5C29.3284 9 30 9.67157 30 10.5C30 11.3284 29.3284 12 28.5 12H7.5C6.67157 12 6 11.3284 6 10.5Z" fill="url(#paint0_linear_76_283)"/>
<path fill-rule="evenodd" clip-rule="evenodd" d="M6 18C6 17.1716 6.67157 16.5 7.5 16.5H28.5C29.3284 16.5 30 17.1716 30 18C30 18.8284 29.3284 19.5 28.5 19.5H7.5C6.67157 19.5 6 18.8284 6 18Z" fill="url(#paint1_linear_76_283)"/>
<path fill-rule="evenodd" clip-rule="evenodd" d="M6 25.5C6 24.6716 6.67157 24 7.5 24H28.5C29.3284 24 30 24.6716 30 25.5C30 26.3284 29.3284 27 28.5 27H7.5C6.67157 27 6 26.3284 6 25.5Z" fill="url(#paint2_linear_76_283)"/>
<defs>
<linearGradient id="paint0_linear_76_283" x1="6" y1="10.5" x2="30" y2="10.5" gradientUnits="userSpaceOnUse">
<stop stop-color="#8CC6FF"/>
<stop offset="0.539715" stop-color="#D9ECFF"/>
<stop offset="1" stop-color="#8CC6FF"/>
</linearGradient>
<linearGradient id="paint1_linear_76_283" x1="6" y1="18" x2="30" y2="18" gradientUnits="userSpaceOnUse">
<stop stop-color="#8CC6FF"/>
<stop offset="0.539715" stop-color="#D9ECFF"/>
<stop offset="1" stop-color="#8CC6FF"/>
</linearGradient>
<linearGradient id="paint2_linear_76_283" x1="6" y1="25.5" x2="30" y2="25.5" gradientUnits="userSpaceOnUse">
<stop stop-color="#8CC6FF"/>
<stop offset="0.539715" stop-color="#D9ECFF"/>
<stop offset="1" stop-color="#8CC6FF"/>
</linearGradient>
</defs>
</svg>
